<mxfile host="app.diagrams.net" agent="Mozilla/5.0 (Windows NT 10.0; Win64; x64) AppleWebKit/537.36 (KHTML, like Gecko) Chrome/131.0.0.0 Safari/537.36" version="26.0.6">
  <diagram id="C5RBs43oDa-KdzZeNtuy" name="Page-1">
    <mxGraphModel dx="260" dy="633" grid="1" gridSize="10" guides="1" tooltips="1" connect="1" arrows="1" fold="1" page="1" pageScale="1" pageWidth="827" pageHeight="1169" math="0" shadow="0" adaptiveColors="simple">
      <root>
        <mxCell id="WIyWlLk6GJQsqaUBKTNV-0" />
        <mxCell id="WIyWlLk6GJQsqaUBKTNV-1" parent="WIyWlLk6GJQsqaUBKTNV-0" />
        <mxCell id="WIyWlLk6GJQsqaUBKTNV-2" value="" style="rounded=0;html=1;jettySize=auto;orthogonalLoop=1;fontSize=11;endArrow=block;endFill=0;endSize=8;strokeWidth=1;shadow=0;labelBackgroundColor=none;edgeStyle=orthogonalEdgeStyle;fontColor=default;" parent="WIyWlLk6GJQsqaUBKTNV-1" edge="1">
          <mxGeometry relative="1" as="geometry">
            <mxPoint x="220" y="120" as="sourcePoint" />
            <mxPoint x="220" y="170" as="targetPoint" />
          </mxGeometry>
        </mxCell>
        <mxCell id="_r48xcUFWRmWqa5BfSIY-0" value="START" style="ellipse;whiteSpace=wrap;html=1;rounded=0;labelBackgroundColor=none;" vertex="1" parent="WIyWlLk6GJQsqaUBKTNV-1">
          <mxGeometry x="160" y="40" width="120" height="80" as="geometry" />
        </mxCell>
        <mxCell id="_r48xcUFWRmWqa5BfSIY-19" value="" style="edgeStyle=none;curved=1;rounded=0;orthogonalLoop=1;jettySize=auto;html=1;fontSize=12;startSize=8;endSize=8;labelBackgroundColor=none;fontColor=default;" edge="1" parent="WIyWlLk6GJQsqaUBKTNV-1" source="_r48xcUFWRmWqa5BfSIY-1" target="_r48xcUFWRmWqa5BfSIY-3">
          <mxGeometry relative="1" as="geometry" />
        </mxCell>
        <mxCell id="_r48xcUFWRmWqa5BfSIY-1" value="WelcomeMsg( )" style="shape=process;whiteSpace=wrap;html=1;backgroundOutline=1;rounded=0;labelBackgroundColor=none;" vertex="1" parent="WIyWlLk6GJQsqaUBKTNV-1">
          <mxGeometry x="130" y="170" width="180" height="60" as="geometry" />
        </mxCell>
        <mxCell id="_r48xcUFWRmWqa5BfSIY-20" value="" style="edgeStyle=none;curved=1;rounded=0;orthogonalLoop=1;jettySize=auto;html=1;fontSize=12;startSize=8;endSize=8;labelBackgroundColor=none;fontColor=default;" edge="1" parent="WIyWlLk6GJQsqaUBKTNV-1" source="_r48xcUFWRmWqa5BfSIY-3" target="_r48xcUFWRmWqa5BfSIY-5">
          <mxGeometry relative="1" as="geometry" />
        </mxCell>
        <mxCell id="_r48xcUFWRmWqa5BfSIY-3" value="TaxpayerDetails( )" style="shape=process;whiteSpace=wrap;html=1;backgroundOutline=1;rounded=0;labelBackgroundColor=none;" vertex="1" parent="WIyWlLk6GJQsqaUBKTNV-1">
          <mxGeometry x="130" y="240" width="180" height="60" as="geometry" />
        </mxCell>
        <mxCell id="_r48xcUFWRmWqa5BfSIY-21" value="" style="edgeStyle=none;curved=1;rounded=0;orthogonalLoop=1;jettySize=auto;html=1;fontSize=12;startSize=8;endSize=8;labelBackgroundColor=none;fontColor=default;" edge="1" parent="WIyWlLk6GJQsqaUBKTNV-1" source="_r48xcUFWRmWqa5BfSIY-5" target="_r48xcUFWRmWqa5BfSIY-7">
          <mxGeometry relative="1" as="geometry" />
        </mxCell>
        <mxCell id="_r48xcUFWRmWqa5BfSIY-5" value="UserNameWelcome( )" style="shape=process;whiteSpace=wrap;html=1;backgroundOutline=1;rounded=0;labelBackgroundColor=none;" vertex="1" parent="WIyWlLk6GJQsqaUBKTNV-1">
          <mxGeometry x="130" y="310" width="180" height="60" as="geometry" />
        </mxCell>
        <mxCell id="_r48xcUFWRmWqa5BfSIY-24" value="" style="edgeStyle=none;curved=1;rounded=0;orthogonalLoop=1;jettySize=auto;html=1;fontSize=12;startSize=8;endSize=8;labelBackgroundColor=none;fontColor=default;" edge="1" parent="WIyWlLk6GJQsqaUBKTNV-1" source="_r48xcUFWRmWqa5BfSIY-7" target="_r48xcUFWRmWqa5BfSIY-9">
          <mxGeometry relative="1" as="geometry" />
        </mxCell>
        <mxCell id="_r48xcUFWRmWqa5BfSIY-7" value="MainIncome( )" style="shape=process;whiteSpace=wrap;html=1;backgroundOutline=1;rounded=0;labelBackgroundColor=none;" vertex="1" parent="WIyWlLk6GJQsqaUBKTNV-1">
          <mxGeometry x="130" y="380" width="180" height="60" as="geometry" />
        </mxCell>
        <mxCell id="_r48xcUFWRmWqa5BfSIY-12" value="" style="edgeStyle=none;curved=1;rounded=0;orthogonalLoop=1;jettySize=auto;html=1;fontSize=12;startSize=8;endSize=8;labelBackgroundColor=none;fontColor=default;" edge="1" parent="WIyWlLk6GJQsqaUBKTNV-1" source="_r48xcUFWRmWqa5BfSIY-9" target="_r48xcUFWRmWqa5BfSIY-11">
          <mxGeometry relative="1" as="geometry" />
        </mxCell>
        <mxCell id="_r48xcUFWRmWqa5BfSIY-9" value="selectionexpenses( )" style="shape=process;whiteSpace=wrap;html=1;backgroundOutline=1;rounded=0;labelBackgroundColor=none;" vertex="1" parent="WIyWlLk6GJQsqaUBKTNV-1">
          <mxGeometry x="130" y="450" width="180" height="60" as="geometry" />
        </mxCell>
        <mxCell id="_r48xcUFWRmWqa5BfSIY-14" value="" style="edgeStyle=none;curved=1;rounded=0;orthogonalLoop=1;jettySize=auto;html=1;fontSize=12;startSize=8;endSize=8;labelBackgroundColor=none;fontColor=default;" edge="1" parent="WIyWlLk6GJQsqaUBKTNV-1" source="_r48xcUFWRmWqa5BfSIY-11" target="_r48xcUFWRmWqa5BfSIY-13">
          <mxGeometry relative="1" as="geometry" />
        </mxCell>
        <mxCell id="_r48xcUFWRmWqa5BfSIY-11" value="displayFinalTax( )" style="shape=process;whiteSpace=wrap;html=1;backgroundOutline=1;rounded=0;labelBackgroundColor=none;" vertex="1" parent="WIyWlLk6GJQsqaUBKTNV-1">
          <mxGeometry x="130" y="525" width="180" height="60" as="geometry" />
        </mxCell>
        <mxCell id="_r48xcUFWRmWqa5BfSIY-32" value="" style="edgeStyle=none;curved=1;rounded=0;orthogonalLoop=1;jettySize=auto;html=1;fontSize=12;startSize=8;endSize=8;labelBackgroundColor=none;fontColor=default;" edge="1" parent="WIyWlLk6GJQsqaUBKTNV-1" source="_r48xcUFWRmWqa5BfSIY-13" target="_r48xcUFWRmWqa5BfSIY-25">
          <mxGeometry relative="1" as="geometry" />
        </mxCell>
        <mxCell id="_r48xcUFWRmWqa5BfSIY-13" value="printDetailsToFile( )" style="shape=process;whiteSpace=wrap;html=1;backgroundOutline=1;rounded=0;labelBackgroundColor=none;" vertex="1" parent="WIyWlLk6GJQsqaUBKTNV-1">
          <mxGeometry x="130" y="600" width="180" height="60" as="geometry" />
        </mxCell>
        <mxCell id="_r48xcUFWRmWqa5BfSIY-28" value="" style="edgeStyle=none;curved=1;rounded=0;orthogonalLoop=1;jettySize=auto;html=1;fontSize=12;startSize=8;endSize=8;labelBackgroundColor=none;fontColor=default;" edge="1" parent="WIyWlLk6GJQsqaUBKTNV-1" source="_r48xcUFWRmWqa5BfSIY-25" target="_r48xcUFWRmWqa5BfSIY-27">
          <mxGeometry relative="1" as="geometry" />
        </mxCell>
        <mxCell id="_r48xcUFWRmWqa5BfSIY-25" value="Ask to run program again" style="shape=parallelogram;perimeter=parallelogramPerimeter;whiteSpace=wrap;html=1;fixedSize=1;rounded=0;labelBackgroundColor=none;" vertex="1" parent="WIyWlLk6GJQsqaUBKTNV-1">
          <mxGeometry x="130" y="670" width="180" height="60" as="geometry" />
        </mxCell>
        <mxCell id="_r48xcUFWRmWqa5BfSIY-37" value="" style="edgeStyle=none;curved=1;rounded=0;orthogonalLoop=1;jettySize=auto;html=1;fontSize=12;startSize=8;endSize=8;labelBackgroundColor=none;fontColor=default;" edge="1" parent="WIyWlLk6GJQsqaUBKTNV-1" source="_r48xcUFWRmWqa5BfSIY-27" target="_r48xcUFWRmWqa5BfSIY-35">
          <mxGeometry relative="1" as="geometry" />
        </mxCell>
        <mxCell id="_r48xcUFWRmWqa5BfSIY-27" value="calculateAgain == &#39;Y&#39; || &#39;y&#39;" style="rhombus;whiteSpace=wrap;html=1;rounded=0;labelBackgroundColor=none;" vertex="1" parent="WIyWlLk6GJQsqaUBKTNV-1">
          <mxGeometry x="130" y="740" width="180" height="80" as="geometry" />
        </mxCell>
        <mxCell id="_r48xcUFWRmWqa5BfSIY-39" value="" style="edgeStyle=none;curved=1;rounded=0;orthogonalLoop=1;jettySize=auto;html=1;fontSize=12;startSize=8;endSize=8;labelBackgroundColor=none;fontColor=default;" edge="1" parent="WIyWlLk6GJQsqaUBKTNV-1" source="_r48xcUFWRmWqa5BfSIY-35" target="_r48xcUFWRmWqa5BfSIY-38">
          <mxGeometry relative="1" as="geometry" />
        </mxCell>
        <mxCell id="_r48xcUFWRmWqa5BfSIY-35" value="DisplayThankYou ( )" style="shape=process;whiteSpace=wrap;html=1;backgroundOutline=1;rounded=0;labelBackgroundColor=none;" vertex="1" parent="WIyWlLk6GJQsqaUBKTNV-1">
          <mxGeometry x="130" y="860" width="180" height="60" as="geometry" />
        </mxCell>
        <mxCell id="_r48xcUFWRmWqa5BfSIY-38" value="END" style="ellipse;whiteSpace=wrap;html=1;rounded=0;labelBackgroundColor=none;" vertex="1" parent="WIyWlLk6GJQsqaUBKTNV-1">
          <mxGeometry x="130" y="950" width="180" height="80" as="geometry" />
        </mxCell>
        <mxCell id="_r48xcUFWRmWqa5BfSIY-50" value="" style="endArrow=classic;html=1;rounded=0;fontSize=12;startSize=8;endSize=8;curved=1;exitX=1;exitY=0.5;exitDx=0;exitDy=0;entryX=1;entryY=0.5;entryDx=0;entryDy=0;labelBackgroundColor=none;fontColor=default;" edge="1" parent="WIyWlLk6GJQsqaUBKTNV-1" source="_r48xcUFWRmWqa5BfSIY-27" target="_r48xcUFWRmWqa5BfSIY-3">
          <mxGeometry width="50" height="50" relative="1" as="geometry">
            <mxPoint x="290" y="540" as="sourcePoint" />
            <mxPoint x="340" y="490" as="targetPoint" />
            <Array as="points">
              <mxPoint x="390" y="770" />
              <mxPoint x="440" y="520" />
              <mxPoint x="400" y="270" />
            </Array>
          </mxGeometry>
        </mxCell>
        <mxCell id="_r48xcUFWRmWqa5BfSIY-51" value="True" style="text;strokeColor=none;fillColor=none;html=1;align=center;verticalAlign=middle;whiteSpace=wrap;rounded=0;fontSize=16;labelBackgroundColor=none;" vertex="1" parent="WIyWlLk6GJQsqaUBKTNV-1">
          <mxGeometry x="310" y="740" width="60" height="30" as="geometry" />
        </mxCell>
        <mxCell id="_r48xcUFWRmWqa5BfSIY-53" value="False" style="text;strokeColor=none;fillColor=none;html=1;align=center;verticalAlign=middle;whiteSpace=wrap;rounded=0;fontSize=16;labelBackgroundColor=none;" vertex="1" parent="WIyWlLk6GJQsqaUBKTNV-1">
          <mxGeometry x="230" y="810" width="60" height="50" as="geometry" />
        </mxCell>
      </root>
    </mxGraphModel>
  </diagram>
</mxfile>
